<?xml version="1.0" encoding="utf-8"?>
<!-- Generator: Adobe Illustrator 27.0.0, SVG Export Plug-In . SVG Version: 6.00 Build 0)  -->
<svg version="1.1" id="Layer_1" xmlns:xodm="http://www.corel.com/coreldraw/odm/2003"
	 xmlns="http://www.w3.org/2000/svg" xmlns:xlink="http://www.w3.org/1999/xlink" x="0px" y="0px" viewBox="0 0 142.3 142.3"
	 style="enable-background:new 0 0 142.3 142.3;" xml:space="preserve">
<style type="text/css">
	.st0{fill-rule:evenodd;clip-rule:evenodd;fill:#2B2A29;stroke:#2B2A29;stroke-width:0.5668;stroke-miterlimit:10;}
	.st1{fill-rule:evenodd;clip-rule:evenodd;fill:#FEFEFE;}
</style>
<g id="Layer_x0020_1">
	<path class="st0" d="M-211.54,0.28h113.39c7.83,0,14.17,6.35,14.17,14.17v113.39c0,7.83-6.35,14.17-14.17,14.17h-113.39
		c-7.83,0-14.17-6.35-14.17-14.17V14.46C-225.72,6.63-219.37,0.28-211.54,0.28z"/>
	<g id="_2878111314512">
		<path class="st1" d="M-193.8,51.55l7.14,71.48c0.01,0.05,0.01,0.09,0.01,0.14c0.04,2.58,2.22,4.66,4.89,4.66h54.15
			c2.67,0,4.85-2.07,4.89-4.66c0-0.05,0-0.09,0.01-0.14l7.14-71.48c0.05-0.47-0.09-0.9-0.41-1.25c-0.32-0.35-0.73-0.53-1.2-0.53
			h-74.99c-0.47,0-0.88,0.18-1.2,0.53C-193.71,50.65-193.85,51.08-193.8,51.55z M-152.37,114.03h-4.42c-0.89,0-1.62-0.73-1.62-1.62
			V65.07c0-0.89,0.73-1.62,1.62-1.62h4.42c0.89,0,1.62,0.73,1.62,1.62v47.33C-150.75,113.3-151.48,114.03-152.37,114.03z
			 M-137.87,114.03h-4.39c-0.49,0-0.9-0.19-1.22-0.56c-0.32-0.37-0.45-0.81-0.38-1.29l6.69-47.33c0.11-0.8,0.79-1.39,1.6-1.39h4.39
			c0.49,0,0.9,0.19,1.22,0.56c0.32,0.37,0.45,0.81,0.38,1.29l-6.69,47.33C-136.38,113.44-137.06,114.03-137.87,114.03z
			 M-166.9,114.03h-4.39c-0.81,0-1.49-0.59-1.6-1.39l-6.69-47.33c-0.07-0.48,0.06-0.92,0.38-1.29c0.32-0.37,0.74-0.56,1.22-0.56
			h4.39c0.81,0,1.49,0.59,1.6,1.39l6.69,47.33c0.07,0.48-0.06,0.92-0.38,1.29C-166,113.84-166.42,114.03-166.9,114.03L-166.9,114.03
			z"/>
		<path class="st1" d="M-117.75,22.46l-20.21,4.93c-0.87,0.21-1.75-0.32-1.96-1.19l-1.98-8.12c-0.66-2.72-4.36-4.15-7.14-3.47
			l-21.48,5.24c-2.78,0.68-6.25,3.18-5.59,5.88l1.99,8.16c0.21,0.85-0.3,1.71-1.14,1.95l-20.14,5.55c-0.01,0-0.03,0.01-0.04,0.01
			c-2.77,0.69-4.49,3.43-3.82,6.14l1.57,6.44c0.21,0.87,1.09,1.4,1.96,1.19l84.59-20.62c0.87-0.21,1.4-1.09,1.19-1.96l-1.57-6.44
			C-112.17,23.43-114.96,21.78-117.75,22.46L-117.75,22.46L-117.75,22.46L-117.75,22.46z M-168.35,29.91
			c-0.53-2.17,1.48-4.52,4.48-5.25l10.86-2.65c3-0.73,5.86,0.44,6.38,2.6l0.74,3.04c0.21,0.87-0.32,1.75-1.19,1.96l-18.58,4.53
			c-0.87,0.21-1.75-0.32-1.96-1.19L-168.35,29.91L-168.35,29.91L-168.35,29.91L-168.35,29.91z"/>
	</g>
</g>
<g>
	<g>
		<path d="M69.19,118h4.42c0,0,0.01,0,0.01,0c2.93-0.01,5.31-2.41,5.31-5.33V65.33c-0.02-2.96-2.35-5.3-5.32-5.31h-4.43
			c-2.96,0.02-5.3,2.35-5.31,5.32v47.35C63.88,115.65,66.22,117.99,69.19,118z M70.44,67.42h1.85v43.18h-1.85V67.42z M119.62,31.99
			l-1.57-6.44c-0.47-1.94-1.6-3.66-3.17-4.85c-1.56-1.19-3.42-1.82-5.39-1.82c-0.71,0-1.43,0.09-2.14,0.26
			c0,0-18.19,4.44-18.19,4.44l-1.49-6.09c-0.25-1.07-0.78-2.1-1.51-3c-0.91-1.12-2.13-2.01-3.62-2.64
			c-1.34-0.56-2.75-0.84-4.17-0.84c-0.82,0-1.6,0.09-2.32,0.28l-21.49,5.24c-1.91,0.48-3.74,1.4-5.28,2.68
			c-0.88,0.74-1.6,1.56-2.14,2.45c-0.69,1.14-1.06,2.41-1.06,3.66c0,0.5,0.06,1.02,0.19,1.55l1.51,6.21l-18.06,4.97
			c-0.03,0.01-0.06,0.01-0.09,0.02c-3.98,1-6.77,4.51-6.77,8.55c0,0.67,0.08,1.36,0.25,2.06l1.57,6.43
			c0.28,1.17,0.96,2.22,1.91,2.96c0.75,0.58,1.64,0.95,2.58,1.07l6.44,64.5c0.07,2.2,1,4.25,2.59,5.77c1.6,1.54,3.71,2.38,5.95,2.38
			h54.19c2.25,0,4.37-0.85,5.98-2.38c1.6-1.52,2.52-3.58,2.59-5.69c0,0,7.15-71.58,7.15-71.6c0.01-0.16,0.02-0.32,0.02-0.48
			c0.01-1.31-0.49-2.62-1.39-3.59c-0.49-0.53-1.1-0.98-1.77-1.28c-0.67-0.3-1.39-0.45-2.15-0.45H83.2l32.5-7.93
			c1.17-0.28,2.22-0.96,2.96-1.91c0.72-0.93,1.12-2.09,1.12-3.26C119.78,32.83,119.72,32.4,119.62,31.99z M106.5,53.73l-6.91,69.2
			c0,0.04-0.01,0.24-0.01,0.24c0,0.04,0,0.22,0,0.22c0,0.16-0.04,0.41-0.31,0.67c-0.14,0.13-0.43,0.35-0.88,0.35H44.22
			c-0.34,0-0.65-0.12-0.87-0.33c-0.21-0.2-0.31-0.43-0.32-0.65v-0.11c0-0.04-0.01-0.31-0.02-0.37L36.5,57.72l16.35-3.99H106.5z
			 M52.07,47.78L30.22,53.1l-0.18,0.04l-1.48-6.07v-0.01c-0.06-0.24-0.09-0.47-0.09-0.7c0-1.34,0.96-2.65,2.45-3.02l0.04-0.01
			l0.05-0.01l20.14-5.55l0.02-0.01c1.58-0.46,2.64-1.88,2.64-3.49c0-0.29-0.03-0.58-0.11-0.87l-1.99-8.15l-0.02-0.2
			c0-0.17,0.05-0.4,0.24-0.72c0.27-0.47,0.87-1.06,1.6-1.53c0.73-0.48,1.59-0.84,2.3-1.02l21.48-5.24c0.29-0.07,0.62-0.11,0.97-0.11
			c0.87-0.01,1.84,0.26,2.54,0.68c0.35,0.21,0.63,0.45,0.83,0.69c0.2,0.24,0.32,0.48,0.38,0.73l1.98,8.12
			c0.2,0.83,0.68,1.53,1.3,2.01c0.62,0.48,1.4,0.76,2.22,0.76c0.28,0,0.57-0.03,0.85-0.1l20.21-4.93c0.27-0.07,0.53-0.1,0.79-0.1
			c0.72,0,1.39,0.24,1.93,0.65c0.53,0.41,0.92,0.97,1.09,1.67l1.48,6.07L52.07,47.78z"/>
	</g>
</g>
</svg>
