<?xml version="1.0" encoding="utf-8"?>
<!-- Generator: Adobe Illustrator 27.0.0, SVG Export Plug-In . SVG Version: 6.00 Build 0)  -->
<svg version="1.1" id="Objects" xmlns="http://www.w3.org/2000/svg" xmlns:xlink="http://www.w3.org/1999/xlink" x="0px" y="0px"
	 viewBox="0 0 2200 2200" style="enable-background:new 0 0 2200 2200;" xml:space="preserve">
<style type="text/css">
	.st0{fill:#5DA39F;}
</style>
<g>
	<path class="st0" d="M1900.92,469.31c-462.89,392.7-752.76,954.01-905.24,1309.41c-37.51,87.44-158.29,95.3-207.02,13.58
		c-139.29-233.58-279.75-388.77-480.2-558.49c-42.43-35.92-44.41-100.69-4.31-139.19l0,0c29.04-27.88,72.63-34.14,108.31-15.5
		c100.63,52.57,306.27,174,467.66,360.46c0,0,222.76-546.63,937.26-1075.56c26.26-19.44,62.7-17.24,86.38,5.27l0,0
		C1932.77,396.84,1931.42,443.43,1900.92,469.31z"/>
</g>
</svg>
