<?xml version="1.0" encoding="utf-8"?>
<!-- Generator: Adobe Illustrator 27.0.0, SVG Export Plug-In . SVG Version: 6.00 Build 0)  -->
<svg version="1.1" id="Layer_1" xmlns:xodm="http://www.corel.com/coreldraw/odm/2003"
	 xmlns="http://www.w3.org/2000/svg" xmlns:xlink="http://www.w3.org/1999/xlink" x="0px" y="0px" viewBox="0 0 158.62 158.62"
	 style="enable-background:new 0 0 158.62 158.62;" xml:space="preserve">
<g id="Layer_x0020_1">
	<path d="M13.49,158.68c-7.46-0.01-13.54-6.08-13.55-13.55V30.05c0.01-7.47,6.08-13.54,13.55-13.55h79.86c2.26,0,4.1,1.84,4.1,4.09
		s-1.84,4.09-4.1,4.09H13.49c-2.95,0-5.36,2.41-5.36,5.36v115.08c0,2.95,2.41,5.36,5.36,5.36h115.08c2.95,0,5.36-2.41,5.36-5.36
		V65.27c0-2.26,1.84-4.1,4.1-4.1c2.26,0,4.1,1.84,4.1,4.1v79.86c-0.01,7.46-6.09,13.54-13.55,13.55
		C128.57,158.68,13.49,158.68,13.49,158.68z M32.21,130.25c-2.26,0-4.09-1.84-4.09-4.1c0-0.31,0.04-0.63,0.11-0.93l7.17-30.56
		c0.18-0.74,0.55-1.42,1.09-1.96l89.43-89.43c2.15-2.15,5.01-3.33,8.04-3.33c3.04,0,5.89,1.18,8.04,3.32l13.35,13.35
		c2.11,2.12,3.33,5.05,3.33,8.04c0,2.99-1.21,5.92-3.32,8.04l-89.43,89.43c-0.55,0.55-1.24,0.93-2,1.1l-30.81,6.91
		C32.8,130.21,32.51,130.25,32.21,130.25z M37.69,120.73l18.9-4.24l-14.5-14.5L37.69,120.73z M64.08,112.39l70.46-70.46l-6.03-6.03
		l-70.46,70.46L64.08,112.39z M52.26,100.57l70.46-70.46l-6.03-6.03L46.22,94.54L52.26,100.57z M145.82,30.65l3.74-3.74
		c0.6-0.6,0.93-1.4,0.93-2.25c0-0.84-0.34-1.66-0.93-2.26L136.21,9.06c-0.59-0.59-1.41-0.93-2.25-0.93c-0.85,0-1.65,0.33-2.26,0.93
		l-3.74,3.74L145.82,30.65z"/>
	<path d="M140.83,4.44c-1.82-1.82-4.29-2.84-6.87-2.84c-2.57,0-5.04,1.02-6.86,2.84L37.66,93.88c-0.32,0.32-0.54,0.72-0.65,1.16
		l-7.17,30.56c-0.04,0.18-0.06,0.37-0.06,0.55c0,1.34,1.09,2.43,2.43,2.43c0.18,0,0.36-0.02,0.53-0.06l30.82-6.91
		c0.45-0.1,0.86-0.33,1.19-0.65l89.43-89.43c1.82-1.82,2.84-4.29,2.84-6.87c0-2.57-1.02-5.04-2.84-6.87
		C154.17,17.79,140.83,4.44,140.83,4.44z M55.69,106.36l72.82-72.82l8.39,8.39l-72.82,72.82C64.08,114.75,55.69,106.36,55.69,106.36
		z M43.87,94.54l72.82-72.82l8.39,8.39l-72.82,72.82C52.26,102.93,43.87,94.54,43.87,94.54z M120.12,18.29l2.06-2.06l20.21,20.21
		l-2.06,2.06L120.12,18.29z M41.15,98.69l18.76,18.76l-24.45,5.49L41.15,98.69L41.15,98.69z M150.74,28.09l-4.92,4.92L125.61,12.8
		l4.92-4.92c0.91-0.91,2.14-1.42,3.43-1.42c1.29,0,2.52,0.51,3.43,1.42l13.35,13.35c0.91,0.91,1.42,2.15,1.42,3.43
		C152.16,25.94,151.65,27.18,150.74,28.09L150.74,28.09L150.74,28.09z M1.6,145.13V30.05c0.01-6.56,5.32-11.88,11.88-11.88h79.85
		c1.34,0,2.43,1.09,2.43,2.43c0,1.34-1.09,2.43-2.43,2.43H13.49c-3.88,0-7.02,3.15-7.03,7.03v115.08c0,3.88,3.15,7.02,7.03,7.03
		h115.08c3.88,0,7.02-3.15,7.03-7.03V65.27c0-1.34,1.09-2.43,2.43-2.43s2.43,1.09,2.43,2.43v79.86
		c-0.01,6.56-5.32,11.88-11.88,11.88H13.49C6.93,157.01,1.61,151.69,1.6,145.13L1.6,145.13L1.6,145.13z"/>
</g>
</svg>
