<?xml version="1.0" encoding="utf-8"?>
<!-- Generator: Adobe Illustrator 27.0.0, SVG Export Plug-In . SVG Version: 6.00 Build 0)  -->
<svg version="1.1" id="Layer_1" xmlns="http://www.w3.org/2000/svg" xmlns:xlink="http://www.w3.org/1999/xlink" x="0px" y="0px"
	 viewBox="0 0 155.91 155.91" style="enable-background:new 0 0 155.91 155.91;" xml:space="preserve">
<style type="text/css">
	.st0{fill:#5FA49F;}
	.st1{fill:#DAB177;}
</style>
<g>
	<g>
		<g>
			<polygon class="st0" points="73.58,25.78 34.93,29.69 56.28,66.66 82.52,30.39 88.45,29.79 65.14,62.13 79.05,86.26 
				106.66,47.95 98.19,33.29 77.62,61.83 80.63,67.04 97.72,43.33 100.16,47.57 79.58,76.14 71.68,62.45 95.75,29.05 92.74,23.84 
				79.51,25.18 56.83,56.64 43.99,34.39 48.75,33.78 57.23,48.47 			"/>
			<polygon class="st1" points="98.72,23.32 126.5,20.42 110.2,43.21 			"/>
		</g>
	</g>
	<g>
		<path class="st1" d="M27.85,125.04L27.81,125c-0.41-0.37-0.9-0.63-1.46-0.77c-1.02-0.24-2.27-0.3-3.81,0.05
			c-0.64,0.15-1.21,0.32-1.69,0.53c-0.33-0.26-0.74-0.46-1.23-0.58c-0.54-0.13-1.16-0.2-1.83-0.2c-0.58,0-1.15,0.05-1.72,0.16
			l-2.16,0.4l-0.19,0.03v10.67h1.82v-9.18c0.33-0.07,0.65-0.13,0.96-0.19c0.37-0.06,0.77-0.09,1.21-0.09c0.5,0,0.95,0.05,1.31,0.14
			c0.34,0.09,0.62,0.25,0.83,0.47c0.22,0.23,0.39,0.57,0.51,1c0.12,0.45,0.18,1.05,0.18,1.8v6.04h1.82v-6.57
			c0-0.61-0.05-1.13-0.15-1.58c-0.07-0.33-0.14-0.59-0.21-0.78c0.07-0.03,0.17-0.06,0.29-0.11c0.26-0.09,0.52-0.17,0.77-0.23
			c0.26-0.06,0.51-0.11,0.74-0.14c0.26-0.03,0.48-0.05,0.66-0.05c0.49,0,0.93,0.05,1.29,0.14c0.34,0.09,0.61,0.25,0.81,0.46
			c0.21,0.23,0.37,0.56,0.49,1c0.12,0.46,0.18,1.07,0.18,1.81v6.04h1.82v-6.57c0-0.9-0.1-1.65-0.31-2.25
			C28.53,125.89,28.24,125.4,27.85,125.04z"/>
		<path class="st1" d="M41.33,130.1c-0.01-1.04-0.15-1.92-0.41-2.63c-0.27-0.72-0.64-1.34-1.1-1.85c-0.47-0.51-1.04-0.91-1.69-1.18
			c-0.64-0.27-1.37-0.41-2.17-0.41c-0.78,0-1.51,0.14-2.18,0.43c-0.67,0.28-1.27,0.68-1.78,1.19c-0.51,0.5-0.91,1.11-1.2,1.81
			c-0.29,0.7-0.44,1.47-0.44,2.31c0,0.81,0.14,1.58,0.43,2.27c0.28,0.69,0.68,1.3,1.18,1.81c0.51,0.51,1.1,0.91,1.77,1.2
			c0.67,0.29,1.42,0.44,2.23,0.44c0.99,0,1.83-0.1,2.51-0.29c0.68-0.19,1.37-0.49,2.04-0.88l0.2-0.11l-0.87-1.66l-0.22,0.13
			c-0.54,0.33-1.1,0.59-1.67,0.76c-0.55,0.17-1.22,0.26-1.99,0.26c-0.53,0-1.03-0.1-1.48-0.29c-0.44-0.19-0.83-0.45-1.16-0.78
			c-0.33-0.34-0.58-0.74-0.76-1.2c-0.14-0.38-0.24-0.73-0.27-1.06h9.04L41.33,130.1z M32.42,128.56c0.06-0.22,0.16-0.48,0.29-0.76
			c0.19-0.4,0.44-0.75,0.74-1.04c0.29-0.28,0.65-0.51,1.07-0.68c0.43-0.17,0.91-0.25,1.43-0.25c0.48,0,0.91,0.08,1.31,0.22
			c0.39,0.15,0.73,0.36,1.01,0.64c0.29,0.29,0.53,0.63,0.71,1.02c0.14,0.3,0.23,0.58,0.29,0.84H32.42z"/>
		<path class="st1" d="M64.11,124.03c-0.56,0-1.18,0.07-1.84,0.22c-0.65,0.14-1.34,0.39-2.04,0.74l-0.12,0.06l-0.08,2.08l0.37-0.2
			c0.49-0.27,0.85-0.46,1.1-0.56c0.24-0.11,0.51-0.2,0.81-0.27c0.26-0.07,0.56-0.13,0.87-0.19c0.29-0.05,0.57-0.07,0.83-0.07
			c0.94,0,1.63,0.2,2.07,0.59c0.41,0.37,0.62,1,0.65,1.87c-0.23-0.03-0.5-0.05-0.8-0.08c-0.4-0.04-0.77-0.06-1.1-0.06
			c-1.64,0-2.99,0.28-4,0.84c-1.05,0.59-1.59,1.57-1.59,2.91c0,0.66,0.15,1.24,0.44,1.7c0.29,0.46,0.68,0.83,1.15,1.11
			c0.46,0.27,0.99,0.46,1.58,0.58c0.57,0.12,1.18,0.17,1.81,0.17c0.73,0,1.45-0.06,2.14-0.19c0.7-0.13,1.38-0.33,2.05-0.6l0.15-0.06
			v-6.34c0-1.46-0.38-2.54-1.12-3.23C66.69,124.37,65.57,124.03,64.11,124.03z M66.73,130.14v3.16c-0.29,0.1-0.65,0.19-1.08,0.26
			c-0.94,0.16-1.89,0.17-2.75,0.03c-0.38-0.06-0.69-0.16-0.94-0.31c-0.25-0.14-0.44-0.31-0.58-0.54c-0.14-0.21-0.21-0.5-0.21-0.86
			c0-0.4,0.08-0.72,0.25-0.95c0.17-0.24,0.41-0.43,0.72-0.56c0.32-0.14,0.7-0.24,1.14-0.3c0.44-0.06,0.9-0.09,1.37-0.09
			c0.41,0,0.85,0.03,1.32,0.08C66.33,130.08,66.58,130.11,66.73,130.14z"/>
		<path class="st1" d="M76.63,126.96c0.32-0.34,0.7-0.62,1.15-0.82c0.45-0.2,0.94-0.31,1.47-0.31c0.61,0,1.16,0.06,1.62,0.19
			c0.46,0.13,0.96,0.36,1.47,0.67l0.22,0.13l0.85-1.67l-0.2-0.11c-0.62-0.34-1.25-0.61-1.86-0.77c-0.61-0.16-1.31-0.25-2.1-0.25
			c-0.78,0-1.51,0.14-2.18,0.43c-0.67,0.28-1.26,0.69-1.76,1.2c-0.5,0.51-0.9,1.12-1.19,1.81c-0.29,0.69-0.44,1.46-0.44,2.29
			c0,0.83,0.15,1.6,0.44,2.29c0.29,0.7,0.69,1.3,1.19,1.81c0.5,0.51,1.09,0.91,1.76,1.19c0.67,0.28,1.4,0.43,2.18,0.43
			c0.79,0,1.5-0.08,2.1-0.25c0.6-0.16,1.23-0.42,1.86-0.77l0.2-0.11l-0.85-1.67l-0.22,0.13c-0.51,0.31-1.01,0.54-1.47,0.67
			c-0.46,0.13-1,0.19-1.62,0.19c-0.53,0-1.03-0.1-1.47-0.3c-0.44-0.19-0.83-0.46-1.15-0.81c-0.32-0.34-0.57-0.76-0.75-1.24
			c-0.18-0.48-0.27-1.01-0.27-1.57c0-0.56,0.09-1.09,0.27-1.57C76.05,127.72,76.31,127.3,76.63,126.96z"/>
		<path class="st1" d="M93.42,125.77l-0.03-0.04c-0.51-0.52-1.11-0.94-1.78-1.24c-0.68-0.3-1.43-0.46-2.22-0.46
			c-0.79,0-1.54,0.15-2.22,0.46c-0.67,0.3-1.27,0.72-1.78,1.24c-0.5,0.52-0.89,1.13-1.18,1.81c-0.28,0.69-0.43,1.44-0.43,2.22
			c0,0.79,0.14,1.54,0.43,2.22c0.28,0.68,0.68,1.29,1.18,1.82c0.51,0.53,1.11,0.94,1.78,1.23c0.68,0.3,1.43,0.45,2.22,0.45
			c0.79,0,1.54-0.15,2.22-0.45c0.67-0.29,1.27-0.71,1.78-1.24c0.5-0.52,0.9-1.13,1.18-1.81c0.28-0.69,0.42-1.43,0.42-2.22
			c0-0.78-0.14-1.53-0.42-2.22C94.29,126.88,93.9,126.28,93.42,125.77z M93.07,129.77c0,0.55-0.09,1.05-0.27,1.53
			c-0.18,0.47-0.43,0.88-0.75,1.23c-0.33,0.35-0.72,0.64-1.16,0.84c-0.45,0.21-0.95,0.31-1.5,0.31c-0.55,0-1.06-0.11-1.5-0.32
			c-0.45-0.2-0.84-0.49-1.16-0.84c-0.32-0.34-0.57-0.76-0.75-1.23c-0.18-0.48-0.27-0.98-0.27-1.53c0-0.54,0.09-1.05,0.27-1.53
			c0.18-0.48,0.43-0.9,0.75-1.24c0.32-0.35,0.71-0.63,1.16-0.84c0.45-0.21,0.95-0.31,1.5-0.31c0.55,0,1.05,0.11,1.5,0.31
			c0.44,0.2,0.84,0.48,1.16,0.84c0.32,0.34,0.57,0.76,0.75,1.24C92.98,128.71,93.07,129.23,93.07,129.77z"/>
		<path class="st1" d="M98.3,124.41c-0.63,0.12-1.18,0.24-1.67,0.37l-0.18,0.05v10.46h1.82v-9.02c0.16-0.04,0.4-0.09,0.75-0.14
			c0.47-0.07,0.88-0.1,1.24-0.1h1.98v-1.78h-2.18C99.47,124.24,98.88,124.3,98.3,124.41z"/>
		<path class="st1" d="M111.73,124.98l-0.03-0.03h0c-0.42-0.35-0.93-0.6-1.49-0.72c-1.03-0.24-2.26-0.26-3.88-0.07
			c-0.73,0.09-1.5,0.21-2.38,0.37l-0.19,0.04v10.72h1.82v-9.19c0.96-0.18,1.87-0.27,2.7-0.27c0.5,0,0.94,0.05,1.31,0.15
			c0.36,0.1,0.65,0.27,0.88,0.49c0.23,0.23,0.41,0.57,0.55,1.01c0.14,0.45,0.21,1.06,0.21,1.8v6h1.82v-6.57
			c0-0.9-0.11-1.66-0.33-2.26C112.5,125.85,112.17,125.36,111.73,124.98z"/>
		<path class="st1" d="M125.27,130.1c-0.01-1.03-0.15-1.92-0.41-2.63c-0.26-0.72-0.64-1.34-1.1-1.85c-0.47-0.51-1.04-0.91-1.69-1.18
			c-0.65-0.27-1.37-0.41-2.17-0.41c-0.78,0-1.51,0.14-2.19,0.43c-0.67,0.28-1.27,0.68-1.78,1.19c-0.51,0.51-0.91,1.12-1.2,1.81
			c-0.29,0.69-0.44,1.47-0.44,2.31c0,0.81,0.14,1.58,0.43,2.27c0.28,0.69,0.68,1.3,1.18,1.81c0.5,0.51,1.1,0.91,1.77,1.2
			c0.67,0.29,1.42,0.44,2.23,0.44c0.98,0,1.83-0.1,2.51-0.29c0.68-0.19,1.37-0.49,2.04-0.88l0.2-0.11l-0.87-1.66l-0.22,0.13
			c-0.55,0.33-1.11,0.59-1.67,0.76c-0.55,0.17-1.22,0.26-2,0.26c-0.54,0-1.03-0.1-1.48-0.29c-0.44-0.19-0.83-0.45-1.16-0.78
			c-0.33-0.33-0.58-0.74-0.76-1.2c-0.14-0.37-0.23-0.73-0.27-1.06h9.04L125.27,130.1z M116.37,128.56c0.06-0.23,0.16-0.48,0.3-0.76
			c0.19-0.4,0.44-0.75,0.74-1.04c0.29-0.28,0.65-0.51,1.07-0.68c0.43-0.17,0.91-0.25,1.43-0.25c0.48,0,0.91,0.08,1.31,0.22
			c0.39,0.15,0.73,0.36,1.01,0.64c0.29,0.28,0.53,0.62,0.71,1.02c0.13,0.29,0.23,0.57,0.29,0.84H116.37z"/>
		<path class="st1" d="M128.34,124.41c-0.6,0.11-1.14,0.23-1.67,0.37l-0.18,0.05v10.46h1.82v-9.02c0.17-0.04,0.41-0.09,0.75-0.14
			c0.47-0.07,0.87-0.1,1.24-0.1h1.98v-1.78h-2.18C129.52,124.24,128.92,124.3,128.34,124.41z"/>
		<path class="st1" d="M141.99,130.98c-0.14-0.4-0.38-0.74-0.71-1.03c-0.32-0.28-0.72-0.52-1.23-0.74c-0.49-0.2-1.08-0.38-1.75-0.54
			l-0.7-0.15c-0.89-0.19-1.51-0.39-1.84-0.61c-0.29-0.2-0.43-0.48-0.43-0.87c0-0.37,0.16-0.64,0.52-0.86
			c0.38-0.23,0.96-0.35,1.72-0.35c0.67,0,1.26,0.06,1.75,0.19c0.48,0.12,1.04,0.36,1.64,0.69l0.22,0.12l0.82-1.67l-0.2-0.11
			c-1.28-0.69-2.7-1.04-4.22-1.04c-0.58,0-1.12,0.07-1.61,0.21c-0.5,0.14-0.94,0.34-1.31,0.59c-0.38,0.26-0.68,0.58-0.9,0.95
			c-0.22,0.38-0.34,0.79-0.34,1.24c0,0.43,0.07,0.83,0.21,1.19c0.14,0.36,0.37,0.69,0.69,0.97c0.31,0.27,0.71,0.51,1.19,0.69
			c0.45,0.19,1.01,0.35,1.69,0.52l0.8,0.17c0.85,0.18,1.46,0.41,1.81,0.68c0.32,0.24,0.48,0.56,0.48,0.97c0,0.29-0.06,0.53-0.19,0.7
			c-0.13,0.18-0.3,0.32-0.54,0.42c-0.25,0.11-0.55,0.2-0.91,0.25c-0.95,0.15-1.85,0.1-2.76-0.14c-0.57-0.16-1.15-0.41-1.74-0.77
			l-0.22-0.13l-0.81,1.62l-0.05,0.1l0.2,0.11c0.71,0.39,1.4,0.67,2.07,0.84c0.66,0.17,1.39,0.25,2.16,0.25
			c0.68,0,1.31-0.06,1.86-0.19c0.57-0.14,1.08-0.34,1.49-0.6c0.43-0.28,0.77-0.62,1-1.03c0.23-0.41,0.35-0.9,0.35-1.43
			C142.2,131.78,142.13,131.36,141.99,130.98z"/>
		<path class="st1" d="M49.7,120.82l0.92,0.52v2.86c-0.71-0.11-1.34-0.17-1.88-0.17c-1.04,0-1.97,0.15-2.76,0.45
			c-0.79,0.3-1.47,0.72-2,1.25c-0.53,0.53-0.93,1.15-1.19,1.85c-0.26,0.7-0.39,1.45-0.39,2.22c0,0.77,0.13,1.52,0.39,2.2
			c0.26,0.7,0.66,1.31,1.19,1.82c0.53,0.51,1.2,0.92,1.99,1.21c0.78,0.29,1.71,0.44,2.76,0.44c0.5,0,1.04-0.04,1.66-0.13
			c0.62-0.09,1.25-0.23,1.86-0.41l0.17-0.05v-14.61l-2.75-1.56V120.82z M48.71,125.84c0.27,0,0.58,0.02,0.97,0.06
			c0.3,0.03,0.61,0.08,0.95,0.16v7.4c-0.26,0.05-0.54,0.09-0.85,0.14c-0.39,0.06-0.74,0.09-1.06,0.09c-1.5,0-2.62-0.35-3.32-1.03
			c-0.7-0.68-1.05-1.64-1.05-2.84c0-0.62,0.09-1.17,0.26-1.66c0.17-0.47,0.44-0.89,0.79-1.23c0.35-0.34,0.8-0.61,1.34-0.8
			C47.28,125.93,47.94,125.84,48.71,125.84z"/>
		<polygon class="st1" points="54.75,124.82 55.67,125.35 55.67,135.29 57.49,135.29 57.49,124.29 54.75,122.73 		"/>
		<rect x="54.96" y="119.93" class="st1" width="2.65" height="2.08"/>
	</g>
	<g>
		<path class="st0" d="M52.51,102.25c-0.63-0.63-1.39-1.14-2.25-1.5c-0.86-0.36-1.82-0.55-2.84-0.55c-0.98,0-1.9,0.19-2.74,0.56
			c-0.84,0.37-1.57,0.89-2.18,1.53c-0.61,0.65-1.09,1.41-1.45,2.26c-0.36,0.85-0.54,1.77-0.54,2.74c0,1.26,0.21,2.29,0.62,3.08H35.3
			l0-8.31l1.13-0.64v-2.28l-3.12,1.77l0,9.46h-8.85V99.11h-2.91c-1.2,0-2.3,0.17-3.28,0.5c-0.97,0.33-1.83,0.8-2.54,1.39
			c-0.71,0.59-1.26,1.3-1.64,2.11c-0.37,0.81-0.56,1.69-0.56,2.62c0,1.15,0.23,2.16,0.68,3.01c0.45,0.84,1.06,1.54,1.8,2.08
			c0.74,0.54,1.6,0.93,2.57,1.18c0.95,0.24,1.95,0.37,2.97,0.37h21.01c0.54,0.56,1.24,1.03,2.06,1.4c0.85,0.38,1.79,0.57,2.8,0.57
			c1.01,0,1.95-0.17,2.8-0.52c0.85-0.35,1.6-0.84,2.25-1.47c0.64-0.64,1.15-1.38,1.51-2.23c0.36-0.85,0.55-1.79,0.55-2.82
			c0-1.01-0.18-1.95-0.53-2.81C53.64,103.63,53.14,102.88,52.51,102.25z M52.54,107.29c0,0.73-0.13,1.42-0.39,2.03h0
			c-0.26,0.62-0.62,1.16-1.07,1.6c-0.45,0.44-0.99,0.79-1.62,1.04c-0.62,0.25-1.31,0.38-2.05,0.38c-0.7,0-1.35-0.14-1.95-0.41
			c-0.59-0.27-1.12-0.63-1.56-1.09c-0.44-0.45-0.78-1-1.03-1.62c-0.25-0.62-0.37-1.27-0.37-1.95c0-0.69,0.13-1.35,0.37-1.97
			c0.25-0.62,0.59-1.16,1.02-1.63c0.43-0.46,0.95-0.83,1.55-1.1c0.59-0.27,1.26-0.4,1.97-0.4c0.73,0,1.42,0.13,2.05,0.38
			c0.63,0.25,1.18,0.61,1.63,1.06c0.45,0.44,0.81,0.98,1.06,1.61C52.42,105.87,52.54,106.56,52.54,107.29z M22.48,101.1v9.27h-1.57
			c-0.75,0-1.47-0.11-2.13-0.33c-0.66-0.22-1.24-0.52-1.71-0.91c-0.47-0.38-0.85-0.87-1.13-1.44c-0.27-0.57-0.41-1.23-0.41-1.96
			c0-0.68,0.15-1.31,0.44-1.88c0.3-0.57,0.7-1.06,1.2-1.45c0.49-0.39,1.08-0.71,1.74-0.95c0.65-0.23,1.33-0.35,2-0.35H22.48z"/>
		<polygon class="st0" points="61.97,101.91 63.1,101.27 63.1,98.99 59.98,100.76 59.98,110.04 61.97,110.04 		"/>
		<path class="st0" d="M76.56,109.55c-0.18-0.32-0.35-0.69-0.5-1.1c-0.15-0.41-0.28-0.88-0.38-1.39c-0.1-0.5-0.15-1.09-0.15-1.74
			c0-1.26,0.54-2.35,1.61-3.26c0.36-0.28,0.79-0.52,1.3-0.69c0.93-0.33,2.21-0.41,3.62,0.04c0.64,0.21,1.31,0.58,2,1.1l0.18,0.14
			l0.71-1.93l-0.12-0.07c-0.54-0.33-0.98-0.58-1.33-0.75c-0.34-0.17-0.71-0.32-1.09-0.44c-0.37-0.12-0.77-0.21-1.19-0.26
			c-0.41-0.06-0.88-0.08-1.38-0.08c-0.73,0-1.45,0.13-2.14,0.38c-0.69,0.25-1.29,0.6-1.8,1.03c-0.68,0.56-1.25,1.28-1.7,2.13
			c-0.45,0.85-0.68,1.86-0.68,3.01c0,0.52,0.05,1.04,0.16,1.54c0.1,0.5,0.24,0.98,0.4,1.44c0.16,0.44,0.34,0.87,0.56,1.3l0.23,0.42
			h-1.9c-0.82,0-1.45-0.05-1.89-0.15c-0.43-0.1-0.8-0.24-1.1-0.42c-0.3-0.19-0.56-0.41-0.77-0.67c-0.2-0.25-0.36-0.51-0.49-0.79
			c0.07-0.2,0.12-0.44,0.16-0.71c0.04-0.29,0.06-0.59,0.06-0.88l-0.02-9.64l1.13-0.64v-2.28l-3.12,1.77l0.02,10.56
			c0,0.76-0.1,1.37-0.31,1.81c-0.2,0.43-0.51,0.8-0.9,1.1c-0.42,0.31-0.92,0.55-1.48,0.7c-0.57,0.16-1.19,0.24-1.84,0.24h-6.81
			l0.22,1.99h5.93c1.02,0,1.99-0.12,2.9-0.35c0.92-0.24,1.74-0.63,2.42-1.16l0.17-0.12c0.08-0.06,0.16-0.11,0.18-0.18
			c0.03-0.04,0.08-0.14,0.21-0.33c0.09,0.12,0.2,0.27,0.34,0.45c0.27,0.33,0.62,0.63,1.06,0.89c0.43,0.26,0.95,0.46,1.52,0.6
			c0.28,0.07,0.66,0.12,1.17,0.16v0.05h13.81v-1.99h-8.5L76.56,109.55z"/>
		<path class="st0" d="M88.21,114.21c0,0.94,0.22,1.69,0.66,2.21c0.44,0.52,1.09,0.77,1.99,0.77h1.03v-1.43h-0.87
			c-0.52,0-0.89-0.1-1.08-0.3c-0.19-0.2-0.28-0.4-0.28-0.6v-0.11h2.97v-1.43h-4.43V114.21z"/>
		<path class="st0" d="M128.22,99.58c-0.99,0.31-1.85,0.77-2.56,1.35c-0.71,0.58-1.27,1.3-1.65,2.11c-0.38,0.81-0.57,1.72-0.57,2.68
			c0,1.2,0.24,2.24,0.71,3.09c0.47,0.85,1.1,1.55,1.87,2.07c0.76,0.52,1.64,0.9,2.6,1.13c0.95,0.22,1.95,0.34,2.96,0.34h0.92V113
			c0,0.79-0.26,1.39-0.79,1.82c-0.53,0.44-1.29,0.66-2.25,0.66c-0.55,0-1.07-0.09-1.54-0.27c-0.48-0.18-1.09-0.48-1.81-0.87
			l-0.15-0.08l-0.92,1.76l0.14,0.08c0.8,0.47,1.51,0.82,2.11,1.04c0.61,0.22,1.31,0.34,2.09,0.34c1.52,0,2.76-0.4,3.7-1.19
			c0.94-0.79,1.42-1.9,1.42-3.28V99.11h-2.91C130.33,99.11,129.2,99.27,128.22,99.58z M132.48,101.1v9.27h-1.57
			c-0.76,0-1.48-0.1-2.14-0.31c-0.67-0.21-1.26-0.5-1.76-0.88c-0.5-0.38-0.89-0.86-1.17-1.43c-0.28-0.56-0.42-1.25-0.42-2.03
			c0-0.71,0.16-1.35,0.47-1.9c0.31-0.56,0.73-1.04,1.24-1.45c0.52-0.41,1.12-0.73,1.77-0.95c0.66-0.23,1.33-0.34,2.01-0.34H132.48z"
			/>
		<polygon class="st0" points="91.48,97.11 92.61,96.47 92.61,94.19 89.49,95.96 89.49,112.36 91.48,112.36 		"/>
		<polygon class="st0" points="118.67,112.36 120.66,112.36 120.66,97.11 121.78,96.47 121.78,94.19 118.67,95.96 		"/>
		<path class="st0" d="M139.23,113.03c0,0.29-0.02,0.61-0.05,0.95c-0.03,0.31-0.1,0.59-0.2,0.82c-0.09,0.22-0.23,0.39-0.41,0.52
			c-0.17,0.13-0.42,0.19-0.76,0.19c-0.23,0-0.56-0.09-0.98-0.26l-0.16-0.07l-0.73,1.85l0.15,0.06c0.62,0.27,1.17,0.41,1.62,0.41
			c0.71,0,1.3-0.12,1.76-0.37c0.46-0.25,0.83-0.59,1.09-1.02c0.25-0.42,0.42-0.9,0.51-1.44c0.09-0.53,0.13-1.08,0.13-1.64l0-11.12
			l1.13-0.64v-2.28l-3.12,1.77L139.23,113.03z"/>
		<polygon class="st0" points="112.65,110.37 103.3,110.37 103.3,97.11 104.43,96.47 104.43,94.19 101.31,95.96 101.31,112.36 
			114.64,112.36 114.64,101.91 115.77,101.27 115.77,98.99 112.65,100.76 		"/>
		<rect x="21.51" y="95.52" class="st0" width="3.17" height="2.42"/>
		<rect x="139.2" y="95.52" class="st0" width="3.17" height="2.42"/>
		<rect x="17.05" y="95.52" class="st0" width="3.17" height="2.42"/>
		<rect x="29.94" y="114.04" class="st0" width="3.17" height="2.42"/>
		<rect x="25.48" y="114.04" class="st0" width="3.17" height="2.42"/>
		<rect x="108.21" y="114.04" class="st0" width="3.17" height="2.42"/>
		<rect x="103.76" y="114.04" class="st0" width="3.17" height="2.42"/>
	</g>
</g>
</svg>
