<?xml version="1.0" encoding="UTF-8"?>
<!DOCTYPE svg PUBLIC "-//W3C//DTD SVG 1.1//EN" "http://www.w3.org/Graphics/SVG/1.1/DTD/svg11.dtd">
<!-- Creator: CorelDRAW -->
<svg xmlns="http://www.w3.org/2000/svg" xml:space="preserve" width="210mm" height="297mm" version="1.1" style="shape-rendering:geometricPrecision; text-rendering:geometricPrecision; image-rendering:optimizeQuality; fill-rule:evenodd; clip-rule:evenodd"
viewBox="0 0 21000 29700"
 xmlns:xlink="http://www.w3.org/1999/xlink"
 xmlns:xodm="http://www.corel.com/coreldraw/odm/2003">
 <defs>
  <style type="text/css">
   <![CDATA[
    .fil0 {fill:#2B2A29;fill-rule:nonzero}
    .fil1 {fill:#2B2A29;fill-rule:nonzero}
   ]]>
  </style>
 </defs>
 <g id="Layer_x0020_1">
  <metadata id="CorelCorpID_0Corel-Layer"/>
  <g id="_2412684719456">
   <path class="fil0" d="M9231.21 16807.33c-59.01,-38.31 -116.25,49.9 -58.46,88.22 1173.84,778.25 2771.94,406.29 3479.37,-824.52 448.23,-779.85 427.79,-1735.02 -29.91,-2490.66l286.57 124.65c20.25,8.81 43.95,-0.52 52.76,-20.77l10.23 -23.51c8.81,-20.25 -0.53,-43.95 -20.78,-52.76l-465.18 -202.35c-12.83,-5.58 -26.48,-4.39 -38.14,3.34 -11.67,7.73 -18.09,19.82 -17.95,33.82l4.99 507.38c0.22,22.08 18.41,39.92 40.49,39.7l25.63 -0.25c22.08,-0.22 39.92,-18.41 39.7,-40.49l-3 -304.52c502.94,837.9 436.49,1914.44 -193.12,2687.3 -762.38,935.83 -2109.25,1140.11 -3113.2,475.42zm-1110.21 -2437.89c-33.32,168.08 -50.68,356.78 -46.86,528.41 9.59,407.87 101.19,734.28 282.72,1097.34l-278.46 -141.21c-19.7,-9.99 -43.91,-2.07 -53.9,17.63l-11.59 22.85c-9.99,19.69 -2.07,43.91 17.62,53.9l452.39 229.4c12.48,6.33 26.17,5.94 38.28,-1.09 12.1,-7.03 19.22,-18.72 19.91,-32.7l24.93 -506.74c1.08,-22.06 -16.02,-40.93 -38.08,-42.02l-25.59 -1.26c-22.06,-1.08 -40.93,16.02 -42.02,38.08l-14.94 303.72c-433.13,-831.07 -335.33,-1853.33 278.74,-2588.04 735.49,-880 1987.77,-1097.47 2977.84,-526.74 59.85,34.5 113.82,-55.91 53.16,-91.5 -1198.24,-703.01 -2782.24,-250.16 -3419.95,1018.29 -99.84,200.8 -169.89,401.71 -214.2,621.68z"/>
   <path class="fil1" d="M9969.33 13327.24l1733.83 0c17.62,0 31.9,14.28 31.9,31.9l0 2976.42c0,17.63 -14.28,31.9 -31.9,31.9l-2353.05 0c-17.63,0 -31.9,-14.27 -31.9,-31.9l0 -2357.19c0,-8.46 3.35,-16.57 9.34,-22.55l619.23 -619.23c5.98,-5.99 14.09,-9.35 22.55,-9.35zm1701.93 63.78l-1688.74 0 -600.55 600.55 0 2312.09 2289.29 0 0 -2912.64zm-156.97 316.04c39.77,0 72.13,32.36 72.13,72.12 0,39.77 -32.36,72.13 -72.13,72.13 -39.76,0 -72.12,-32.36 -72.12,-72.13 -0.03,-39.76 32.33,-72.12 72.12,-72.12zm0 80.47c4.62,0 8.36,-3.76 8.36,-8.36 0,-4.59 -3.76,-8.35 -8.36,-8.35 -4.59,0 -8.35,3.76 -8.35,8.35 0,4.6 3.73,8.36 8.35,8.36zm0 275.56c39.77,0 72.13,32.36 72.13,72.13 0,39.77 -32.36,72.13 -72.13,72.13 -39.76,0 -72.12,-32.36 -72.12,-72.13 -0.03,-39.77 32.33,-72.13 72.12,-72.13zm0 80.52c4.62,0 8.36,-3.76 8.36,-8.36 0,-4.6 -3.76,-8.36 -8.36,-8.36 -4.59,0 -8.35,3.76 -8.35,8.36 -0.02,4.6 3.73,8.36 8.35,8.36zm0 275.53c39.77,0 72.13,32.36 72.13,72.13 0,39.77 -32.36,72.13 -72.13,72.13 -39.76,0 -72.12,-32.36 -72.12,-72.13 0,-39.77 32.33,-72.13 72.12,-72.13zm0 80.51c4.62,0 8.36,-3.76 8.36,-8.36 0,-4.6 -3.76,-8.36 -8.36,-8.36 -4.59,0 -8.35,3.76 -8.35,8.36 0,4.6 3.73,8.36 8.35,8.36zm0 275.56c39.77,0 72.13,32.36 72.13,72.13 0,39.76 -32.36,72.12 -72.13,72.12 -39.76,0 -72.12,-32.36 -72.12,-72.12 -0.03,-39.77 32.33,-72.13 72.12,-72.13zm0 80.51c4.62,0 8.36,-3.77 8.36,-8.36 0,-4.6 -3.76,-8.36 -8.36,-8.36 -4.59,0 -8.35,3.76 -8.35,8.36 -0.02,4.61 3.73,8.36 8.35,8.36zm0 275.56c39.77,0 72.13,32.36 72.13,72.12 0,39.77 -32.36,72.13 -72.13,72.13 -39.76,0 -72.12,-32.36 -72.12,-72.13 0,-39.76 32.33,-72.12 72.12,-72.12zm0 80.48c4.62,0 8.36,-3.76 8.36,-8.36 0,-4.59 -3.76,-8.35 -8.36,-8.35 -4.59,0 -8.35,3.76 -8.35,8.35 0,4.6 3.73,8.36 8.35,8.36zm0 275.56c39.77,0 72.13,32.36 72.13,72.13 0,39.77 -32.36,72.13 -72.13,72.13 -39.76,0 -72.12,-32.36 -72.12,-72.13 0,-39.77 32.33,-72.13 72.12,-72.13zm0 80.49c4.62,0 8.36,-3.76 8.36,-8.36 0,-4.6 -3.76,-8.36 -8.36,-8.36 -4.59,0 -8.35,3.76 -8.35,8.36 0,4.6 3.73,8.36 8.35,8.36zm0 275.56c39.77,0 72.13,32.36 72.13,72.13 0,39.77 -32.36,72.13 -72.13,72.13 -39.76,0 -72.12,-32.36 -72.12,-72.13 -0.03,-39.77 32.33,-72.13 72.12,-72.13zm0 80.51c4.62,0 8.36,-3.76 8.36,-8.36 0,-4.62 -3.76,-8.36 -8.36,-8.36 -4.59,0 -8.35,3.76 -8.35,8.36 -0.02,4.6 3.73,8.36 8.35,8.36z"/>
   <g>
    <path class="fil1" d="M9665.89 15716.45l1721.48 0c17.59,0 31.9,14.27 31.9,31.9 0,17.62 -14.28,31.9 -31.9,31.9l-1721.48 0c-17.62,0 -31.9,-14.28 -31.9,-31.9 0,-17.63 14.28,-31.9 31.9,-31.9z"/>
    <path class="fil1" d="M9665.89 15356.05l1721.48 0c17.59,0 31.9,14.27 31.9,31.9 0,17.62 -14.28,31.9 -31.9,31.9l-1721.48 0c-17.62,0 -31.9,-14.28 -31.9,-31.9 0,-17.63 14.28,-31.9 31.9,-31.9z"/>
    <path class="fil1" d="M9665.89 14995.65l1721.48 0c17.59,0 31.9,14.27 31.9,31.9 0,17.59 -14.28,31.9 -31.9,31.9l-1721.48 0c-17.62,0 -31.9,-14.28 -31.9,-31.9 0,-17.63 14.28,-31.9 31.9,-31.9z"/>
    <path class="fil1" d="M9665.89 14635.28l1721.48 0c17.59,0 31.9,14.27 31.9,31.9 0,17.62 -14.28,31.9 -31.9,31.9l-1721.48 0.01c-17.62,0 -31.9,-14.28 -31.9,-31.9 0,-17.64 14.28,-31.91 31.9,-31.91z"/>
    <path class="fil1" d="M9665.89 14274.89l1721.48 0c17.59,0 31.9,14.27 31.9,31.9 0,17.62 -14.28,31.9 -31.9,31.9l-1721.48 0c-17.62,0 -31.9,-14.28 -31.9,-31.9 0,-17.63 14.28,-31.9 31.9,-31.9z"/>
    <path class="fil1" d="M10139.3 13914.49l1248.07 0c17.59,0 31.9,14.27 31.9,31.9 0,17.62 -14.28,31.9 -31.9,31.9l-1248.07 0c-17.62,0 -31.9,-14.28 -31.9,-31.9 0,-17.63 14.28,-31.9 31.9,-31.9z"/>
   </g>
   <path class="fil1" d="M9969.33 13327.24c4.11,0 8.25,0.79 12.19,2.44 11.89,4.92 19.68,16.57 19.68,29.46l0 619.23c0,17.62 -14.27,31.9 -31.9,31.9l-619.23 0c-12.89,0 -24.52,-7.76 -29.46,-19.68 -4.93,-11.92 -2.22,-25.63 6.91,-34.77l619.23 -619.23c6.11,-6.1 14.28,-9.35 22.58,-9.35zm-31.9 619.23l0 -510.36 -510.35 510.36 510.35 0z"/>
  </g>
 </g>
</svg>
