<?xml version="1.0" encoding="utf-8"?>
<!-- Generator: Adobe Illustrator 27.0.0, SVG Export Plug-In . SVG Version: 6.00 Build 0)  -->
<svg version="1.1" id="Layer_1" xmlns:xodm="http://www.corel.com/coreldraw/odm/2003"
	 xmlns="http://www.w3.org/2000/svg" xmlns:xlink="http://www.w3.org/1999/xlink" x="0px" y="0px" viewBox="0 0 142.3 142.3"
	 style="enable-background:new 0 0 142.3 142.3;" xml:space="preserve">
<style type="text/css">
	.st0{fill-rule:evenodd;clip-rule:evenodd;fill:#2B2A29;stroke:#2B2A29;stroke-width:0.5668;stroke-miterlimit:10;}
	.st1{fill-rule:evenodd;clip-rule:evenodd;fill:#FEFEFE;}
	.st2{fill:#FFFFFF;stroke:#000000;stroke-width:4;stroke-linejoin:round;stroke-miterlimit:10;}
</style>
<g id="Layer_x0020_1">
	<path class="st0" d="M-211.54,0.28h113.39c7.83,0,14.17,6.35,14.17,14.17v113.39c0,7.83-6.35,14.17-14.17,14.17h-113.39
		c-7.83,0-14.17-6.35-14.17-14.17V14.46C-225.72,6.63-219.37,0.28-211.54,0.28z"/>
	<g id="_2878111314512">
		<path class="st1" d="M-193.8,51.55l7.14,71.48c0.01,0.05,0.01,0.09,0.01,0.14c0.04,2.58,2.22,4.66,4.89,4.66h54.15
			c2.67,0,4.85-2.07,4.89-4.66c0-0.05,0-0.09,0.01-0.14l7.14-71.48c0.05-0.47-0.09-0.9-0.41-1.25c-0.32-0.35-0.73-0.53-1.2-0.53
			h-74.99c-0.47,0-0.88,0.18-1.2,0.53C-193.71,50.65-193.85,51.08-193.8,51.55z M-152.37,114.03h-4.42c-0.89,0-1.62-0.73-1.62-1.62
			V65.07c0-0.89,0.73-1.62,1.62-1.62h4.42c0.89,0,1.62,0.73,1.62,1.62v47.33C-150.75,113.3-151.48,114.03-152.37,114.03z
			 M-137.87,114.03h-4.39c-0.49,0-0.9-0.19-1.22-0.56c-0.32-0.37-0.45-0.81-0.38-1.29l6.69-47.33c0.11-0.8,0.79-1.39,1.6-1.39h4.39
			c0.49,0,0.9,0.19,1.22,0.56c0.32,0.37,0.45,0.81,0.38,1.29l-6.69,47.33C-136.38,113.44-137.06,114.03-137.87,114.03z
			 M-166.9,114.03h-4.39c-0.81,0-1.49-0.59-1.6-1.39l-6.69-47.33c-0.07-0.48,0.06-0.92,0.38-1.29c0.32-0.37,0.74-0.56,1.22-0.56
			h4.39c0.81,0,1.49,0.59,1.6,1.39l6.69,47.33c0.07,0.48-0.06,0.92-0.38,1.29C-166,113.84-166.42,114.03-166.9,114.03L-166.9,114.03
			z"/>
		<path class="st1" d="M-117.75,22.46l-20.21,4.93c-0.87,0.21-1.75-0.32-1.96-1.19l-1.98-8.12c-0.66-2.72-4.36-4.15-7.14-3.47
			l-21.48,5.24c-2.78,0.68-6.25,3.18-5.59,5.88l1.99,8.16c0.21,0.85-0.3,1.71-1.14,1.95l-20.14,5.55c-0.01,0-0.03,0.01-0.04,0.01
			c-2.77,0.69-4.49,3.43-3.82,6.14l1.57,6.44c0.21,0.87,1.09,1.4,1.96,1.19l84.59-20.62c0.87-0.21,1.4-1.09,1.19-1.96l-1.57-6.44
			C-112.17,23.43-114.96,21.78-117.75,22.46L-117.75,22.46L-117.75,22.46L-117.75,22.46z M-168.35,29.91
			c-0.53-2.17,1.48-4.52,4.48-5.25l10.86-2.65c3-0.73,5.86,0.44,6.38,2.6l0.74,3.04c0.21,0.87-0.32,1.75-1.19,1.96l-18.58,4.53
			c-0.87,0.21-1.75-0.32-1.96-1.19L-168.35,29.91L-168.35,29.91L-168.35,29.91L-168.35,29.91z"/>
	</g>
</g>
<g id="_2878111314512_00000105385507175222610310000009183074541239825576_">
	<path class="st2" d="M32.18,51.82l7.14,71.48c0.01,0.05,0.01,0.09,0.01,0.14c0.04,2.58,2.22,4.66,4.89,4.66h54.15
		c2.67,0,4.85-2.07,4.89-4.66c0-0.05,0-0.09,0.01-0.14l7.14-71.48c0.05-0.47-0.09-0.9-0.41-1.25c-0.32-0.35-0.73-0.53-1.2-0.53
		H33.79c-0.47,0-0.88,0.18-1.2,0.53S32.13,51.35,32.18,51.82z M73.61,114.3h-4.42c-0.89,0-1.62-0.73-1.62-1.62V65.34
		c0-0.89,0.73-1.62,1.62-1.62h4.42c0.89,0,1.62,0.73,1.62,1.62v47.33C75.23,113.57,74.5,114.3,73.61,114.3z M88.11,114.3h-4.39
		c-0.49,0-0.9-0.19-1.22-0.56c-0.32-0.37-0.45-0.81-0.38-1.29l6.69-47.33c0.11-0.8,0.79-1.39,1.6-1.39h4.39
		c0.49,0,0.9,0.19,1.22,0.56c0.32,0.37,0.45,0.81,0.38,1.29l-6.69,47.33C89.6,113.71,88.92,114.3,88.11,114.3z M59.07,114.3h-4.39
		c-0.81,0-1.49-0.59-1.6-1.39L46.4,65.57c-0.07-0.48,0.06-0.92,0.38-1.29c0.32-0.37,0.74-0.56,1.22-0.56h4.39
		c0.81,0,1.49,0.59,1.6,1.39l6.69,47.33c0.07,0.48-0.06,0.92-0.38,1.29C59.98,114.1,59.56,114.3,59.07,114.3L59.07,114.3z"/>
	<path class="st2" d="M108.23,22.73l-20.21,4.93c-0.87,0.21-1.75-0.32-1.96-1.19l-1.98-8.12c-0.66-2.72-4.36-4.15-7.14-3.47
		l-21.48,5.24c-2.78,0.68-6.25,3.18-5.59,5.88l1.99,8.16c0.21,0.85-0.3,1.71-1.14,1.95l-20.14,5.55c-0.01,0-0.03,0.01-0.04,0.01
		c-2.77,0.69-4.49,3.43-3.82,6.14l1.57,6.44c0.21,0.87,1.09,1.4,1.96,1.19l84.59-20.62c0.87-0.21,1.4-1.09,1.19-1.96l-1.57-6.44
		C113.8,23.7,111.02,22.05,108.23,22.73L108.23,22.73L108.23,22.73L108.23,22.73z M57.63,30.18c-0.53-2.17,1.48-4.52,4.48-5.25
		l10.86-2.65c3-0.73,5.86,0.44,6.38,2.6l0.74,3.04c0.21,0.87-0.32,1.75-1.19,1.96l-18.58,4.53c-0.87,0.21-1.75-0.32-1.96-1.19
		L57.63,30.18L57.63,30.18L57.63,30.18L57.63,30.18z"/>
</g>
</svg>
