<?xml version="1.0" encoding="UTF-8"?>
<!DOCTYPE svg PUBLIC "-//W3C//DTD SVG 1.1//EN" "http://www.w3.org/Graphics/SVG/1.1/DTD/svg11.dtd">
<!-- Creator: CorelDRAW -->
<svg xmlns="http://www.w3.org/2000/svg" xml:space="preserve" width="51.7641mm" height="60.4316mm" version="1.1" style="shape-rendering:geometricPrecision; text-rendering:geometricPrecision; image-rendering:optimizeQuality; fill-rule:evenodd; clip-rule:evenodd"
viewBox="0 0 5176.4 6043.15"
 xmlns:xlink="http://www.w3.org/1999/xlink"
 xmlns:xodm="http://www.corel.com/coreldraw/odm/2003">
 <defs>
  <style type="text/css">
   <![CDATA[
    .fil0 {fill:#2B2A29;fill-rule:nonzero}
    .fil1 {fill:#2B2A29;fill-rule:nonzero}
   ]]>
  </style>
 </defs>
 <g id="Layer_x0020_1">
  <metadata id="CorelCorpID_0Corel-Layer"/>
  <path class="fil0" d="M3814.23 866.76l773.96 0c162.4,0 309.46,65.85 415.9,172.3 106.23,106.23 171.95,253.27 171.96,415.88l0.35 0 -0.35 0.02 -0.01 3999.99 0.35 0c0,162.4 -65.85,309.45 -172.3,415.89 -106.23,106.23 -253.27,171.95 -415.88,171.96l0 0.35 -4000.01 0c-162.38,0 -309.45,-65.86 -415.89,-172.31 -106.44,-106.44 -172.31,-253.52 -172.31,-415.9l0 -3999.98c0,-162.38 65.87,-309.46 172.31,-415.9 106.44,-106.44 253.52,-172.31 415.9,-172.31l759.68 0.01 0 176.4 -761.26 0c-113.07,0.43 -215.43,46.45 -289.6,120.62 -74.52,74.52 -120.63,177.48 -120.63,291.18l0 3999.98c0,113.7 46.11,216.66 120.63,291.18 74.51,74.51 177.47,120.63 291.17,120.63l3999.99 0 0.02 0.35c113.45,0 216.43,-46.25 291.16,-120.98 74.51,-74.51 120.62,-177.46 120.62,-291.15l0.35 -0.02 0.01 -3999.99 -0.35 0 0.35 -0.02c0,-113.45 -46.25,-216.43 -120.98,-291.16 -74.51,-74.51 -177.47,-120.62 -291.16,-120.62l-773.98 0 0 -176.4z"/>
  <path class="fil1" d="M1265.48 2530.31l254.08 2544.82 0.28 1.38 0.2 2.49 0.09 7.16c0.35,26.35 11.88,50.33 30.25,67.84 18.9,18.02 45.18,29.13 74.35,29.13l1938.12 0c29.17,0 55.45,-11.11 74.35,-29.13 18.36,-17.5 29.89,-41.49 30.24,-67.84l0.09 -7.16 0.2 -2.49 0.28 -1.38 254.09 -2544.82 -2656.61 0zm113.94 2557.21l-255.31 -2557.12c-1.82,-18.42 0.04,-36.05 5.48,-52.63l0 -0.28c5.43,-16.48 14.51,-31.85 27.14,-45.78 12.31,-13.61 26.77,-24.1 43.1,-31.36 16.65,-7.4 34.08,-11.16 51.98,-11.16l2683.95 0c17.9,0 35.33,3.76 51.98,11.16 16.33,7.26 30.79,17.75 43.1,31.36 12.64,13.97 21.7,29.33 27.14,45.8l0 0.28c5.45,16.58 7.3,34.22 5.48,52.61l-255.32 2557.12 0.14 0.01 -0.2 2.49 -0.13 -0.01c-1.49,65.21 -29.46,123.74 -73.74,165.97 -44.3,42.24 -104.89,68.27 -171.37,68.27l-1938.12 0c-66.48,0 -127.07,-26.03 -171.37,-68.27 -44.29,-42.23 -72.26,-100.75 -73.75,-165.97l-0.13 0.01 -0.2 -2.49 0.14 -0.01zm1297.52 -257.26l-158.13 0c-35.12,0 -67.18,-14.43 -90.57,-37.7l-0.27 -0.27c-23.27,-23.39 -37.7,-55.46 -37.7,-90.57l0 -1694.07c0,-35.43 14.43,-67.59 37.69,-90.85 23.26,-23.26 55.42,-37.69 90.85,-37.69l158.13 0c35.43,0 67.59,14.43 90.85,37.69 23.27,23.27 37.7,55.42 37.7,90.85l0 1694.07c0,35.18 -14.48,67.31 -37.84,90.7l0.14 0.14c-23.27,23.27 -55.42,37.7 -90.85,37.7zm-145.55 -141.12l132.98 0 0 -1668.91 -132.98 0 0 1668.91zm664.54 141.12l-156.97 0c-18.69,0 -36.5,-3.86 -53.07,-11.39l-0.27 -0.28c-16.54,-7.55 -31.22,-18.54 -43.63,-32.82 -12.35,-14.23 -21.18,-30.27 -26.34,-47.73 -5.12,-17.41 -6.45,-35.57 -3.83,-54.09l239.3 -1694.07c4.49,-31.85 20.29,-59.51 43.03,-79.27 22.75,-19.74 52.22,-31.5 84.12,-31.5l156.98 0c18.71,0 36.52,3.87 53.08,11.39l0.27 0.28c16.58,7.56 31.24,18.57 43.61,32.81 12.34,14.2 21.17,30.24 26.34,47.72 5.13,17.41 6.45,35.57 3.83,54.09l-239.3 1694.07c-4.51,31.84 -20.27,59.51 -43.03,79.28 -22.74,19.76 -52.23,31.51 -84.12,31.51zm-142.66 -141.12l131.91 0 235.74 -1668.91 -131.9 0 -235.75 1668.91zm-896.47 141.12l-156.99 0c-31.9,0 -61.37,-11.75 -84.11,-31.51l-0.27 0c-22.56,-19.62 -38.24,-47.3 -42.75,-79.28l-239.32 -1694.07c-2.62,-18.54 -1.3,-36.68 3.84,-54.08 5.16,-17.45 13.99,-33.49 26.34,-47.73 12.38,-14.25 27.06,-25.25 43.62,-32.81l0.27 -0.28c16.56,-7.52 34.37,-11.39 53.08,-11.39l156.98 0c31.88,0 61.37,11.76 84.12,31.5 22.73,19.77 38.54,47.44 43.02,79.27l239.31 1694.07c2.62,18.54 1.3,36.7 -3.84,54.1 -5.25,17.76 -14.08,33.9 -26.35,47.99l-0.13 -0.12c-12.52,14.38 -27.22,25.43 -43.76,32.94l-0.06 -0.13c-16.84,7.63 -34.65,11.53 -53,11.53zm-146.22 -141.12l131.91 0 -235.76 -1668.91 -131.91 0 235.76 1668.91z"/>
  <path class="fil1" d="M2531.41 2000.36c6.57,7.28 14.19,12.86 22.26,16.45 8.09,3.59 17.45,5.52 27.47,5.52 10.04,0 19.38,-1.92 27.46,-5.51 8.34,-3.71 16.02,-9.25 22.45,-16.32l-0.15 -0.14 612.37 -678.59c9.02,-10.01 14.67,-22.03 16.64,-34.44 2,-12.59 0.44,-25.74 -4.92,-37.81l0 -0.27c-5.3,-11.94 -14.06,-21.88 -24.83,-28.89 -10.47,-6.8 -23.14,-10.64 -36.65,-10.64l-359.71 0 0 -435.21c0,-18.51 -7.51,-35.28 -19.62,-47.39l0 -0.27c-11.94,-11.95 -28.7,-19.35 -47.38,-19.35l-371.44 0c-18.51,0 -35.29,7.51 -47.4,19.62 -12.11,12.11 -19.62,28.88 -19.62,47.39l0 435.21 -359.7 0c-13.51,0 -26.18,3.84 -36.65,10.64 -10.78,7 -19.52,16.94 -24.83,28.89 -5.38,12.12 -6.93,25.39 -4.91,38.11 1.97,12.41 7.61,24.42 16.63,34.41l612.53 678.59zm-34.52 144.89c-26.73,-11.88 -50.75,-29.05 -70.22,-50.63l-612.53 -678.59c-27.37,-30.32 -44.57,-67.54 -50.79,-106.63 -6.17,-38.76 -1.31,-79.39 15.37,-116.93 16.76,-37.73 43.71,-68.67 76.65,-90.07 33.25,-21.62 72.43,-33.8 113.27,-33.8l218.58 0 0 -294.09c0,-57.44 23.31,-109.48 60.98,-147.15 37.67,-37.67 89.72,-60.98 147.16,-60.98l371.44 0c57.2,0 109.2,23.37 147,61.12l0.14 -0.14c37.67,37.67 60.98,89.71 60.98,147.15l0 294.09 218.59 0c40.82,0 80,12.19 113.27,33.8 32.86,21.38 59.78,52.23 76.55,89.85l0.1 -0.05c16.7,37.57 21.57,78.28 15.38,117.17 -6.22,39.07 -23.43,76.29 -50.8,106.66l-612.37 678.59 -0.28 0c-19.66,21.74 -43.58,38.9 -69.98,50.64 -26.69,11.86 -55.37,18.19 -84.24,18.19 -28.88,0 -57.56,-6.35 -84.25,-18.2z"/>
  <path class="fil1" d="M2395.41 400.24l371.46 0c18.69,0 35.45,-7.4 47.39,-19.35l0.27 -0.27c11.95,-11.94 19.35,-28.7 19.35,-47.39l0 -125.09c0,-18.52 -7.51,-35.29 -19.62,-47.4l0 -0.27c-11.94,-11.95 -28.7,-19.35 -47.39,-19.35l-371.46 0c-18.52,0 -35.29,7.51 -47.4,19.62 -12.11,12.11 -19.61,28.88 -19.61,47.4l0 125.09c0,18.69 7.4,35.45 19.35,47.39l0.27 0.27c11.94,11.95 28.7,19.35 47.39,19.35zm371.46 141.12l-371.46 0c-57.14,0 -109.08,-23.31 -146.88,-60.98l-0.27 -0.27c-37.67,-37.8 -60.98,-89.76 -60.98,-146.88l0 -125.09c0,-57.45 23.31,-109.5 60.97,-147.16 37.67,-37.67 89.71,-60.98 147.16,-60.98l371.46 0c57.21,0 109.21,23.37 147.01,61.12l0.14 -0.14c37.67,37.67 60.98,89.71 60.98,147.16l0 125.09c0,57.12 -23.31,109.08 -60.98,146.88l-0.27 0.27c-37.8,37.67 -89.74,60.98 -146.88,60.98z"/>
 </g>
</svg>
