<?xml version="1.0" encoding="UTF-8"?>
<!DOCTYPE svg PUBLIC "-//W3C//DTD SVG 1.1//EN" "http://www.w3.org/Graphics/SVG/1.1/DTD/svg11.dtd">
<!-- Creator: CorelDRAW -->
<svg xmlns="http://www.w3.org/2000/svg" xml:space="preserve" width="51.7641mm" height="60.4316mm" version="1.1" style="shape-rendering:geometricPrecision; text-rendering:geometricPrecision; image-rendering:optimizeQuality; fill-rule:evenodd; clip-rule:evenodd"
viewBox="0 0 5176.4 6043.15"
 xmlns:xlink="http://www.w3.org/1999/xlink"
 xmlns:xodm="http://www.corel.com/coreldraw/odm/2003">
 <defs>
  <style type="text/css">
   <![CDATA[
    .str1 {stroke:#2B2A29;stroke-width:141.11;stroke-miterlimit:22.9256}
    .str0 {stroke:#2B2A29;stroke-width:176.39;stroke-miterlimit:22.9256}
    .fil0 {fill:none}
    .fil1 {fill:none;fill-rule:nonzero}
   ]]>
  </style>
 </defs>
 <g id="Layer_x0020_1">
  <metadata id="CorelCorpID_0Corel-Layer"/>
  <path class="fil0 str0" d="M3814.23 954.96l773.96 0c276.1,-0.01 500.01,223.9 500.01,500l-0.01 3999.99c0.01,276.09 -223.9,500 -500,500l-3999.99 0c-276.09,0 -500,-223.91 -500,-500.01l0 -3999.98c0,-276.1 223.91,-500.01 500.01,-500.01l-0.01 0.01 759.69 0"/>
  <path class="fil0 str1" d="M1194.11 2523.51l255.45 2558.52c0.18,1.73 0.27,3.22 0.29,4.96 1.27,92.5 79.27,166.7 174.88,166.7l1938.12 0c95.61,0 173.61,-74.2 174.87,-166.7 0.03,-1.74 0.12,-3.23 0.29,-4.96l255.46 -2558.52c1.68,-16.91 -3.32,-32.09 -14.72,-44.68 -11.39,-12.59 -26,-19.07 -42.98,-19.07l-2683.95 0c-16.98,0 -31.59,6.48 -42.98,19.07 -11.41,12.58 -16.4,27.77 -14.72,44.68zm1482.83 2236.19l-158.13 0c-31.93,0 -57.98,-26.06 -57.98,-57.99l0 -1694.06c0,-31.94 26.05,-57.99 57.98,-57.99l158.13 0c31.94,0 57.99,26.05 57.99,57.99l0 1694.06c0,31.93 -26.05,57.99 -57.99,57.99zm519 0l-156.98 0c-17.4,0 -32.36,-6.83 -43.78,-19.96 -11.4,-13.14 -16.07,-28.92 -13.63,-46.14l239.3 -1694.07c4.07,-28.79 28.33,-49.87 57.42,-49.87l156.98 0c17.39,0 32.37,6.82 43.77,19.96 11.4,13.13 16.07,28.91 13.64,46.13l-239.31 1694.07c-4.07,28.79 -28.33,49.88 -57.41,49.88zm-1039.14 0l-156.99 0c-29.08,0 -53.33,-21.09 -57.4,-49.88l-239.32 -1694.07c-2.43,-17.22 2.23,-33 13.65,-46.13 11.4,-13.14 26.38,-19.96 43.77,-19.96l156.98 0c29.08,0 53.35,21.08 57.41,49.87l239.31 1694.07c2.44,17.22 -2.23,33 -13.65,46.14 -11.4,13.13 -26.37,19.96 -43.76,19.96l0 0z"/>
  <g id="_2913328642928">
   <path class="fil1 str1" d="M2479.04 2047.49c26.06,28.88 63.18,45.41 102.1,45.41 38.95,0 76.01,-16.52 102.13,-45.41l612.37 -678.6c36.41,-40.38 45.66,-98.36 23.57,-148.03 -22.08,-49.69 -71.37,-81.69 -125.7,-81.69l-289.15 0 0 -364.65c0,-75.98 -61.6,-137.58 -137.57,-137.58l-371.43 0c-75.97,0 -137.57,61.6 -137.57,137.58l0 364.65 -289.15 0c-54.35,0 -103.62,31.99 -125.7,81.69 -22.08,49.69 -12.82,107.71 23.57,148.03l612.53 678.6z"/>
   <path class="fil1 str1" d="M2395.41 470.8l371.46 0c75.97,0 137.57,-61.6 137.57,-137.57l0 -125.09c0,-75.98 -61.6,-137.58 -137.57,-137.58l-371.46 0c-75.98,0 -137.58,61.6 -137.58,137.58l0 125.09c0,75.97 61.61,137.57 137.58,137.57z"/>
  </g>
 </g>
</svg>
