<?xml version="1.0" encoding="UTF-8"?>
<!DOCTYPE svg PUBLIC "-//W3C//DTD SVG 1.1//EN" "http://www.w3.org/Graphics/SVG/1.1/DTD/svg11.dtd">
<!-- Creator: CorelDRAW -->
<svg xmlns="http://www.w3.org/2000/svg" xml:space="preserve" width="55.9565mm" height="55.9571mm" version="1.1" style="shape-rendering:geometricPrecision; text-rendering:geometricPrecision; image-rendering:optimizeQuality; fill-rule:evenodd; clip-rule:evenodd"
viewBox="0 0 6244.45 6244.52"
 xmlns:xlink="http://www.w3.org/1999/xlink"
 xmlns:xodm="http://www.corel.com/coreldraw/odm/2003">
 <defs>
  <style type="text/css">
   <![CDATA[
    .fil0 {fill:black;fill-rule:nonzero}
   ]]>
  </style>
 </defs>
 <g id="Layer_x0020_1">
  <metadata id="CorelCorpID_0Corel-Layer"/>
  <path class="fil0" d="M5594.07 114.08c-73.21,-73.03 -172.44,-114.08 -275.86,-114.08 -103.43,0 -202.64,41.06 -275.84,114.06l-3593.52 3593.52c-12.84,12.84 -21.86,29.05 -26.01,46.71l-288.13 1227.91c-1.7,7.31 -2.58,14.8 -2.58,22.3 0,53.88 43.69,97.58 97.57,97.58 7.18,0 14.35,-0.81 21.35,-2.38l1238.2 -277.83c18.03,-4.04 34.57,-13.15 47.65,-26.2l3593.52 -3593.51c72.97,-73.19 114.04,-172.46 114.04,-275.85 0,-103.4 -41.07,-202.66 -114.04,-275.87l-536.35 -536.36zm-3420.86 4095.21l2925.95 -2925.95 337.05 337.05 -2925.94 2925.96 -337.06 -337.06zm-475.05 -475.05l2925.96 -2925.95 337.05 337.05 -2925.94 2925.96 -337.07 -337.06zm3063.94 -3063.93l82.67 -82.69 812.11 812.11 -82.69 82.68 -812.09 -812.1zm-3173.24 3230.62l753.86 753.84 -982.47 220.42 228.61 -974.27zm4403.57 -2836.76l-197.59 197.59 -812.09 -812.13 197.59 -197.58c36.58,-36.49 86.17,-57.01 137.88,-57.01 51.69,0 101.28,20.52 137.86,57.01l536.35 536.36c36.39,36.64 56.87,86.22 56.87,137.88 0,51.67 -20.48,101.25 -56.88,137.88l0.01 0.01zm-5992.44 4702.88l0 -4624.06c0.23,-263.53 213.94,-477.25 477.49,-477.48l3208.68 0c53.88,0 97.57,43.7 97.57,97.58 0,53.88 -43.69,97.57 -97.57,97.57l-3208.72 0c-155.84,0.17 -282.14,126.47 -282.32,282.31l0 4624.06c0.18,155.86 126.48,282.17 282.31,282.35l4624.06 0c155.84,-0.15 282.19,-126.48 282.36,-282.32l0 -3208.73c0,-53.88 43.69,-97.58 97.57,-97.58 53.88,0 97.58,43.7 97.58,97.58l0 3208.73c-0.23,263.52 -213.95,477.22 -477.5,477.46l-4624.05 0c-263.52,-0.23 -477.22,-213.94 -477.46,-477.49l0 0.03z"/>
 </g>
</svg>
